<?xml version="1.0" standalone="no"?>
<!DOCTYPE svg PUBLIC "-//W3C//DTD SVG 20010904//EN"
 "http://www.w3.org/TR/2001/REC-SVG-20010904/DTD/svg10.dtd">
<svg version="1.0" xmlns="http://www.w3.org/2000/svg"
 width="900.000000pt" height="560.000000pt" viewBox="0 0 900.000000 560.000000"
 preserveAspectRatio="xMidYMid meet">

<g transform="translate(0.000000,560.000000) scale(0.100000,-0.100000)"
fill="#000000" stroke="none">
<path d="M4278 5340 c-339 -36 -635 -121 -903 -259 -157 -81 -339 -194 -390
-241 -16 -15 -52 -44 -80 -64 -69 -51 -290 -271 -328 -326 -17 -25 -48 -65
-69 -90 -61 -69 -178 -261 -256 -420 -193 -391 -282 -868 -242 -1295 25 -260
60 -421 141 -645 80 -218 222 -486 332 -625 13 -16 46 -59 73 -95 157 -208
446 -454 707 -601 473 -268 1055 -381 1567 -304 326 49 715 179 887 296 23 16
53 33 68 39 39 15 217 142 320 229 118 99 213 194 311 311 72 87 224 300 224
315 0 3 22 43 49 88 46 76 87 167 162 356 35 88 102 364 124 511 74 494 -32
1069 -282 1525 -238 436 -600 790 -1043 1023 -212 111 -502 212 -680 237 -25
4 -88 13 -140 21 -117 18 -435 26 -552 14z m420 -2227 l-3 -1248 -130 -22
c-223 -37 -343 -47 -550 -47 -209 0 -299 11 -450 56 -211 62 -380 195 -464
365 -127 256 -125 634 5 893 67 136 209 278 342 345 77 39 210 82 294 95 76
12 355 9 396 -5 l22 -7 0 404 c0 223 3 408 7 411 3 4 125 7 270 7 l263 0 -2
-1247z m862 962 l0 -275 -270 0 -270 0 0 275 0 275 270 0 270 0 0 -275z m-5
-1330 c0 -590 -3 -805 -13 -884 -48 -374 -190 -600 -472 -750 l-80 -42 -158
75 c-86 41 -196 92 -244 115 -49 22 -88 43 -88 48 0 5 37 27 83 50 179 90 301
217 357 371 68 187 80 367 80 1200 l0 602 268 -2 267 -3 0 -780z"/>
<path d="M3874 3116 c-217 -50 -325 -216 -311 -478 15 -299 182 -431 511 -403
l86 7 0 428 0 428 -32 11 c-53 19 -187 22 -254 7z"/>
</g>
</svg>
