<?xml version="1.0" ?><svg height="512" preserveAspectRatio="xMidYMid" viewBox="0 0 512 512" width="512" xmlns="http://www.w3.org/2000/svg" xmlns:xlink="http://www.w3.org/1999/xlink"><defs><style>
      .cls-1 {
        fill: #fff;
      }

      .cls-2 {
        fill: #ff6e01;
      }

      .cls-2, .cls-3 {
        fill-rule: evenodd;
      }

      .cls-3 {
        fill: #000;
        opacity: 0.1;
      }
    </style></defs><circle class="cls-1" cx="256" cy="256" r="256"/><path class="cls-2" d="M256.000,512.000 C114.615,512.000 0.000,397.385 0.000,256.000 C0.000,114.615 114.615,0.000 256.000,0.000 C397.385,0.000 512.000,114.615 512.000,256.000 C512.000,397.385 397.385,512.000 256.000,512.000 ZM368.489,115.296 C357.004,115.296 318.962,115.296 318.962,115.296 C318.962,115.296 314.916,114.834 314.937,118.051 C315.088,141.447 316.154,305.988 316.154,305.988 L217.345,115.296 L146.237,115.296 C146.237,115.296 142.003,114.985 142.019,118.823 C142.019,174.361 142.662,364.172 142.760,392.705 C142.772,396.331 146.030,396.347 146.030,396.347 L199.012,396.989 C199.012,396.989 202.527,397.399 202.508,394.470 C202.363,371.493 201.289,201.415 201.289,201.415 L303.803,395.797 L367.251,395.797 C367.251,395.797 371.734,396.067 371.734,391.850 C371.734,358.099 371.734,119.285 371.734,119.285 C371.734,119.285 372.012,115.296 368.489,115.296 Z"/><path class="cls-3" d="M436.999,75.012 C536.959,174.972 536.959,337.039 436.999,436.999 C337.039,536.959 174.972,536.959 75.012,436.999 "/></svg>